# xmcd CD database file
#
# Track frame offsets:
#	150
#	15954
#	26530
#	45144
#	57077
#	66793
#	86784
#	98981
#	106563
#	120463
#	139137
#	156381
#	177017
#	187149
#	203178
#	218871
#	232559
#	248357
#	264990
#	279938
#
# Disc length: 3904 seconds
#
# Revision: 6
# Processed by: cddbd v1.5.2PL0 Copyright (c) Steve Scherf et al.
# Submitted via: CDex 1.70beta2
#
DISCID=f80f3e14
DTITLE=Various Artist - i am sam
DYEAR=2002
DGENRE=Soundtrack
TTITLE0=Two of Us - Aimee Mann and Michael Penn
TTITLE1=Blackbird - Sarah McLachlan
TTITLE2=Across the Universe - Rufus Wainwright
TTITLE3=I'm Looking Through You - The Wallflowers
TTITLE4=You've Got to Hide Your Love Away - Eddie Vedder
TTITLE5=Strawberry Fields Forever - Ben Harper
TTITLE6=Mother Nature's Son - Sheryl Crow
TTITLE7=Golden Slumbers - Ben Folds
TTITLE8=I'm Only Sleeping - The Vines
TTITLE9=Don't Let Me Down - The Stereophonics
TTITLE10=Lucy in the Sky With Diamonds - The Black Crowes
TTITLE11=Julia - Chocolate Genius
TTITLE12=We Can Work It Out - Heather Nova
TTITLE13=Help! - Howie Day
TTITLE14=Nowhere Man - Paul Westerberg
TTITLE15=Revolution - Grandaddy
TTITLE16=Let It Be - Nick Cave
TTITLE17=Lucy in the Sky With Diamonds - Aimee Mann
TTITLE18=Two of Us  - Neil Finn/Liam Finn
TTITLE19=If I Needed Someone - Tica [Bonus Track]
EXTD=YEAR: 2002
EXTT0=
EXTT1=
EXTT2=
EXTT3=
EXTT4=
EXTT5=
EXTT6=
EXTT7=
EXTT8=
EXTT9=
EXTT10=
EXTT11=
EXTT12=
EXTT13=
EXTT14=
EXTT15=
EXTT16=
EXTT17=
EXTT18=
EXTT19=
PLAYORDER=
